<svg width="0" height="0" xmlns="http://www.w3.org/2000/svg" style="position: absolute;">
  <defs>
    <symbol id="icon-check" viewBox="0 0 24 24">
      <path fill="currentColor" d="M9 16.17L4.83 12l-1.42 1.41L9 19 21 7l-1.41-1.41z"/>
    </symbol>
    <symbol id="icon-close" viewBox="0 0 24 24">
      <path fill="currentColor" d="M19 6.41L17.59 5 12 10.59 6.41 5 5 6.41 10.59 12 5 17.59 6.41 19 12 13.41 17.59 19 19 17.59 13.41 12z"/>
    </symbol>
    <symbol id="icon-copy" viewBox="0 0 24 24">
      <path fill="currentColor" d="M16 1H4c-1.1 0-2 .9-2 2v14h2V3h12V1zm3 4H8c-1.1 0-2 .9-2 2v14c0 1.1.9 2 2 2h11c1.1 0 2-.9 2-2V7c0-1.1-.9-2-2-2zm0 16H8V7h11v14z"/>
    </symbol>
    <symbol id="icon-star" viewBox="0 0 24 24">
      <path fill="currentColor" d="M12 17.27L18.18 21l-1.64-7.03L22 9.24l-7.19-.61L12 2 9.19 8.63 2 9.24l5.46 4.73L5.82 21z"/>
    </symbol>
    <symbol id="icon-heart" viewBox="0 0 24 24">
      <path fill="currentColor" d="M12 21.35l-1.45-1.32C5.4 15.36 2 12.28 2 8.5 2 5.42 4.42 3 7.5 3c1.74 0 3.41.81 4.5 2.09C13.09 3.81 14.76 3 16.5 3 19.58 3 22 5.42 22 8.5c0 3.78-3.4 6.86-8.55 11.54L12 21.35z"/>
    </symbol>
  </defs>
</svg>

